<?xml version="1.0" encoding="UTF-8"?>
<!DOCTYPE svg PUBLIC "-//W3C//DTD SVG 1.1//EN" "http://www.w3.org/Graphics/SVG/1.1/DTD/svg11.dtd">
<!-- Creator: CorelDRAW -->
<svg xmlns="http://www.w3.org/2000/svg" xml:space="preserve" width="2048px" height="2048px" style="shape-rendering:geometricPrecision; text-rendering:geometricPrecision; image-rendering:optimizeQuality; fill-rule:evenodd; clip-rule:evenodd"
viewBox="0 0 2048 2048"
 xmlns:xlink="http://www.w3.org/1999/xlink">
 <defs>
  <style type="text/css">
   <![CDATA[
    .fil2 {fill:none}
    .fil0 {fill:#212121;fill-rule:nonzero}
    .fil1 {fill:#66BB6A;fill-rule:nonzero}
   ]]>
  </style>
 </defs>
 <g id="Layer_x0020_1">
  <metadata id="CorelCorpID_0Corel-Layer"/>
  <path class="fil0" d="M421.179 255.999l1205.64 0c13.2543,0 24,10.7457 24,24l0 1488c0,13.2543 -10.7457,24 -24,24l-1205.64 0c-13.2543,0 -24,-10.7457 -24,-24l0 -1488c0,-13.2543 10.7457,-24 24,-24zm1181.64 48l-1157.64 0 0 1440 1157.64 0 0 -1440z"/>
  <path class="fil0" d="M533.696 366.975l980.61 0c13.2543,0 24,10.7457 24,24l0 1266.05c0,13.2543 -10.7457,24 -24,24l-980.61 0c-13.2543,0 -24,-10.7457 -24,-24l0 -1266.05c0,-13.2543 10.7457,-24 24,-24zm956.61 48l-932.61 0 0 1218.05 932.61 0 0 -1218.05z"/>
  <g id="_475132704">
   <polygon id="_475133760" class="fil1" points="639.997,1017.96 1408,1017.96 1408,1065.96 639.997,1065.96 "/>
   <polygon id="_475132968" class="fil1" points="639.997,1246.02 1408,1246.02 1408,1294.02 639.997,1294.02 "/>
   <polygon id="_475133184" class="fil1" points="639.997,1474.07 1408,1474.07 1408,1522.07 639.997,1522.07 "/>
   <polygon id="_475133160" class="fil1" points="639.997,771.942 1408,771.942 1408,819.942 639.997,819.942 "/>
   <polygon id="_475133280" class="fil1" points="639.997,525.925 1408,525.925 1408,573.925 639.997,573.925 "/>
  </g>
 </g>
 <rect class="fil2" width="2048" height="2048"/>
</svg>
